M48
; DRILL file KiCad 10.0.0 date 2026-03-29T09:26:27
; FORMAT={-:-/ absolute / metric / decimal}
; #@! TF.CreationDate,2026-03-29T09:26:27+05:30
; #@! TF.GenerationSoftware,Kicad,Pcbnew,10.0.0
; #@! TF.FileFunction,Plated,1,2,PTH
FMAT,2
METRIC
; #@! TA.AperFunction,Plated,PTH,ViaDrill
T1C0.400
; #@! TA.AperFunction,Plated,PTH,ComponentDrill
T2C0.500
; #@! TA.AperFunction,Plated,PTH,ComponentDrill
T3C0.600
; #@! TA.AperFunction,Plated,PTH,ComponentDrill
T4C1.000
; #@! TA.AperFunction,Plated,PTH,ComponentDrill
T5C1.090
%
G90
G05
T1
X131.0Y-111.5
X133.0Y-104.0
X138.5Y-96.0
X140.5Y-98.5
X147.5Y-106.5
X148.5Y-109.5
X149.0Y-98.0
X149.5Y-99.0
X161.0Y-104.0
X163.04Y-109.54
X164.5Y-92.0
X165.5Y-93.0
X166.5Y-107.0
X170.0Y-96.5
X171.0Y-102.0
X172.0Y-106.0
T2
X178.7Y-115.0
X178.7Y-116.0
X178.7Y-117.0
X179.7Y-115.0
X179.7Y-116.0
X179.7Y-117.0
T3
X120.5Y-119.5
X123.0Y-122.0
X125.5Y-119.5
X152.0Y-118.0
X154.5Y-120.5
X157.0Y-118.0
T4
X125.46Y-131.5
X128.0Y-131.5
X130.54Y-131.5
X133.08Y-131.5
X135.62Y-131.5
X138.16Y-131.5
X140.7Y-131.5
X143.24Y-131.5
X145.78Y-131.5
T5
X120.85Y-102.0
X123.5Y-105.25
M30
