%TF.GenerationSoftware,KiCad,Pcbnew,10.0.0*%
%TF.CreationDate,2026-03-29T09:26:31+05:30*%
%TF.ProjectId,MCU DATALOGGER,4d435520-4441-4544-914c-4f474745522e,1*%
%TF.SameCoordinates,Original*%
%TF.FileFunction,Paste,Top*%
%TF.FilePolarity,Positive*%
%FSLAX46Y46*%
G04 Gerber Fmt 4.6, Leading zero omitted, Abs format (unit mm)*
G04 Created by KiCad (PCBNEW 10.0.0) date 2026-03-29 09:26:31*
%MOMM*%
%LPD*%
G01*
G04 APERTURE LIST*
G04 Aperture macros list*
%AMRoundRect*
0 Rectangle with rounded corners*
0 $1 Rounding radius*
0 $2 $3 $4 $5 $6 $7 $8 $9 X,Y pos of 4 corners*
0 Add a 4 corners polygon primitive as box body*
4,1,4,$2,$3,$4,$5,$6,$7,$8,$9,$2,$3,0*
0 Add four circle primitives for the rounded corners*
1,1,$1+$1,$2,$3*
1,1,$1+$1,$4,$5*
1,1,$1+$1,$6,$7*
1,1,$1+$1,$8,$9*
0 Add four rect primitives between the rounded corners*
20,1,$1+$1,$2,$3,$4,$5,0*
20,1,$1+$1,$4,$5,$6,$7,0*
20,1,$1+$1,$6,$7,$8,$9,0*
20,1,$1+$1,$8,$9,$2,$3,0*%
G04 Aperture macros list end*
%ADD10RoundRect,0.067500X-0.067500X-0.067500X0.067500X-0.067500X0.067500X0.067500X-0.067500X0.067500X0*%
%ADD11RoundRect,0.175000X0.175000X0.225000X-0.175000X0.225000X-0.175000X-0.225000X0.175000X-0.225000X0*%
%ADD12RoundRect,0.150000X0.150000X0.275000X-0.150000X0.275000X-0.150000X-0.275000X0.150000X-0.275000X0*%
%ADD13RoundRect,0.150000X-0.825000X-0.150000X0.825000X-0.150000X0.825000X0.150000X-0.825000X0.150000X0*%
%ADD14RoundRect,0.137500X-0.600000X-0.137500X0.600000X-0.137500X0.600000X0.137500X-0.600000X0.137500X0*%
%ADD15RoundRect,0.137500X-0.137500X-0.600000X0.137500X-0.600000X0.137500X0.600000X-0.137500X0.600000X0*%
%ADD16RoundRect,0.175000X-0.225000X0.175000X-0.225000X-0.175000X0.225000X-0.175000X0.225000X0.175000X0*%
%ADD17RoundRect,0.150000X-0.275000X0.150000X-0.275000X-0.150000X0.275000X-0.150000X0.275000X0.150000X0*%
%ADD18RoundRect,0.079500X-0.079500X-0.100500X0.079500X-0.100500X0.079500X0.100500X-0.079500X0.100500X0*%
G04 APERTURE END LIST*
D10*
%TO.C,C3*%
X153450000Y-91000000D03*
X154000000Y-91000000D03*
%TD*%
D11*
%TO.C,J1*%
X159400000Y-133500000D03*
X153500000Y-133500000D03*
D12*
X158250000Y-137275000D03*
X157050000Y-137275000D03*
X155850000Y-137275000D03*
X154650000Y-137275000D03*
%TD*%
D13*
%TO.C,U1*%
X133025000Y-90095000D03*
X133025000Y-91365000D03*
X133025000Y-92635000D03*
X133025000Y-93905000D03*
X137975000Y-93905000D03*
X137975000Y-92635000D03*
X137975000Y-91365000D03*
X137975000Y-90095000D03*
%TD*%
D10*
%TO.C,R5*%
X166450000Y-104500000D03*
X167000000Y-104500000D03*
%TD*%
D14*
%TO.C,U5*%
X149675000Y-101100000D03*
X149675000Y-101900000D03*
X149675000Y-102700000D03*
X149675000Y-103500000D03*
X149675000Y-104300000D03*
X149675000Y-105100000D03*
X149675000Y-105900000D03*
X149675000Y-106700000D03*
D15*
X151037500Y-108062500D03*
X151837500Y-108062500D03*
X152637500Y-108062500D03*
X153437500Y-108062500D03*
X154237500Y-108062500D03*
X155037500Y-108062500D03*
X155837500Y-108062500D03*
X156637500Y-108062500D03*
D14*
X158000000Y-106700000D03*
X158000000Y-105900000D03*
X158000000Y-105100000D03*
X158000000Y-104300000D03*
X158000000Y-103500000D03*
X158000000Y-102700000D03*
X158000000Y-101900000D03*
X158000000Y-101100000D03*
D15*
X156637500Y-99737500D03*
X155837500Y-99737500D03*
X155037500Y-99737500D03*
X154237500Y-99737500D03*
X153437500Y-99737500D03*
X152637500Y-99737500D03*
X151837500Y-99737500D03*
X151037500Y-99737500D03*
%TD*%
D10*
%TO.C,R2*%
X172475000Y-100000000D03*
X173025000Y-100000000D03*
%TD*%
%TO.C,C4*%
X166725000Y-111500000D03*
X167275000Y-111500000D03*
%TD*%
%TO.C,R6*%
X172950000Y-108000000D03*
X173500000Y-108000000D03*
%TD*%
D16*
%TO.C,J2*%
X179612500Y-122050000D03*
X179612500Y-127950000D03*
D17*
X183387500Y-123200000D03*
X183387500Y-124400000D03*
X183387500Y-125600000D03*
X183387500Y-126800000D03*
%TD*%
D10*
%TO.C,C2*%
X166450000Y-108000000D03*
X167000000Y-108000000D03*
%TD*%
%TO.C,D2*%
X166475000Y-90500000D03*
X167025000Y-90500000D03*
%TD*%
D18*
%TO.C,R3*%
X166310000Y-96000000D03*
X167000000Y-96000000D03*
%TD*%
D10*
%TO.C,C5*%
X158950000Y-91000000D03*
X159500000Y-91000000D03*
%TD*%
D13*
%TO.C,U3*%
X133050000Y-107500000D03*
X133050000Y-108770000D03*
X133050000Y-110040000D03*
X133050000Y-111310000D03*
X138000000Y-111310000D03*
X138000000Y-110040000D03*
X138000000Y-108770000D03*
X138000000Y-107500000D03*
%TD*%
D10*
%TO.C,R1*%
X172950000Y-105000000D03*
X173500000Y-105000000D03*
%TD*%
D18*
%TO.C,R4*%
X166310000Y-100500000D03*
X167000000Y-100500000D03*
%TD*%
D10*
%TO.C,C1*%
X146950000Y-91000000D03*
X147500000Y-91000000D03*
%TD*%
%TO.C,R7*%
X172450000Y-96000000D03*
X173000000Y-96000000D03*
%TD*%
%TO.C,D1*%
X172225000Y-91000000D03*
X172775000Y-91000000D03*
%TD*%
D13*
%TO.C,U2*%
X133050000Y-98500000D03*
X133050000Y-99770000D03*
X133050000Y-101040000D03*
X133050000Y-102310000D03*
X138000000Y-102310000D03*
X138000000Y-101040000D03*
X138000000Y-99770000D03*
X138000000Y-98500000D03*
%TD*%
M02*
