%TF.GenerationSoftware,KiCad,Pcbnew,10.0.0*%
%TF.CreationDate,2026-03-29T09:26:31+05:30*%
%TF.ProjectId,MCU DATALOGGER,4d435520-4441-4544-914c-4f474745522e,1*%
%TF.SameCoordinates,Original*%
%TF.FileFunction,Legend,Bot*%
%TF.FilePolarity,Positive*%
%FSLAX46Y46*%
G04 Gerber Fmt 4.6, Leading zero omitted, Abs format (unit mm)*
G04 Created by KiCad (PCBNEW 10.0.0) date 2026-03-29 09:26:31*
%MOMM*%
%LPD*%
G01*
G04 APERTURE LIST*
%ADD10C,0.100000*%
G04 APERTURE END LIST*
D10*
X146696115Y-120372419D02*
X146696115Y-119372419D01*
X146696115Y-119372419D02*
X146362782Y-120086704D01*
X146362782Y-120086704D02*
X146029449Y-119372419D01*
X146029449Y-119372419D02*
X146029449Y-120372419D01*
X145600877Y-120086704D02*
X145124687Y-120086704D01*
X145696115Y-120372419D02*
X145362782Y-119372419D01*
X145362782Y-119372419D02*
X145029449Y-120372419D01*
X144696115Y-120372419D02*
X144696115Y-119372419D01*
X144696115Y-119372419D02*
X144458020Y-119372419D01*
X144458020Y-119372419D02*
X144315163Y-119420038D01*
X144315163Y-119420038D02*
X144219925Y-119515276D01*
X144219925Y-119515276D02*
X144172306Y-119610514D01*
X144172306Y-119610514D02*
X144124687Y-119800990D01*
X144124687Y-119800990D02*
X144124687Y-119943847D01*
X144124687Y-119943847D02*
X144172306Y-120134323D01*
X144172306Y-120134323D02*
X144219925Y-120229561D01*
X144219925Y-120229561D02*
X144315163Y-120324800D01*
X144315163Y-120324800D02*
X144458020Y-120372419D01*
X144458020Y-120372419D02*
X144696115Y-120372419D01*
X143696115Y-119848609D02*
X143362782Y-119848609D01*
X143219925Y-120372419D02*
X143696115Y-120372419D01*
X143696115Y-120372419D02*
X143696115Y-119372419D01*
X143696115Y-119372419D02*
X143219925Y-119372419D01*
X141696115Y-119848609D02*
X141553258Y-119896228D01*
X141553258Y-119896228D02*
X141505639Y-119943847D01*
X141505639Y-119943847D02*
X141458020Y-120039085D01*
X141458020Y-120039085D02*
X141458020Y-120181942D01*
X141458020Y-120181942D02*
X141505639Y-120277180D01*
X141505639Y-120277180D02*
X141553258Y-120324800D01*
X141553258Y-120324800D02*
X141648496Y-120372419D01*
X141648496Y-120372419D02*
X142029448Y-120372419D01*
X142029448Y-120372419D02*
X142029448Y-119372419D01*
X142029448Y-119372419D02*
X141696115Y-119372419D01*
X141696115Y-119372419D02*
X141600877Y-119420038D01*
X141600877Y-119420038D02*
X141553258Y-119467657D01*
X141553258Y-119467657D02*
X141505639Y-119562895D01*
X141505639Y-119562895D02*
X141505639Y-119658133D01*
X141505639Y-119658133D02*
X141553258Y-119753371D01*
X141553258Y-119753371D02*
X141600877Y-119800990D01*
X141600877Y-119800990D02*
X141696115Y-119848609D01*
X141696115Y-119848609D02*
X142029448Y-119848609D01*
X140838972Y-119896228D02*
X140838972Y-120372419D01*
X141172305Y-119372419D02*
X140838972Y-119896228D01*
X140838972Y-119896228D02*
X140505639Y-119372419D01*
X138981829Y-120372419D02*
X138981829Y-119848609D01*
X138981829Y-119848609D02*
X139029448Y-119753371D01*
X139029448Y-119753371D02*
X139124686Y-119705752D01*
X139124686Y-119705752D02*
X139315162Y-119705752D01*
X139315162Y-119705752D02*
X139410400Y-119753371D01*
X138981829Y-120324800D02*
X139077067Y-120372419D01*
X139077067Y-120372419D02*
X139315162Y-120372419D01*
X139315162Y-120372419D02*
X139410400Y-120324800D01*
X139410400Y-120324800D02*
X139458019Y-120229561D01*
X139458019Y-120229561D02*
X139458019Y-120134323D01*
X139458019Y-120134323D02*
X139410400Y-120039085D01*
X139410400Y-120039085D02*
X139315162Y-119991466D01*
X139315162Y-119991466D02*
X139077067Y-119991466D01*
X139077067Y-119991466D02*
X138981829Y-119943847D01*
X138505638Y-120372419D02*
X138505638Y-119705752D01*
X138505638Y-119896228D02*
X138458019Y-119800990D01*
X138458019Y-119800990D02*
X138410400Y-119753371D01*
X138410400Y-119753371D02*
X138315162Y-119705752D01*
X138315162Y-119705752D02*
X138219924Y-119705752D01*
X137458019Y-120324800D02*
X137553257Y-120372419D01*
X137553257Y-120372419D02*
X137743733Y-120372419D01*
X137743733Y-120372419D02*
X137838971Y-120324800D01*
X137838971Y-120324800D02*
X137886590Y-120277180D01*
X137886590Y-120277180D02*
X137934209Y-120181942D01*
X137934209Y-120181942D02*
X137934209Y-119896228D01*
X137934209Y-119896228D02*
X137886590Y-119800990D01*
X137886590Y-119800990D02*
X137838971Y-119753371D01*
X137838971Y-119753371D02*
X137743733Y-119705752D01*
X137743733Y-119705752D02*
X137553257Y-119705752D01*
X137553257Y-119705752D02*
X137458019Y-119753371D01*
X137029447Y-120372419D02*
X137029447Y-119372419D01*
X136600876Y-120372419D02*
X136600876Y-119848609D01*
X136600876Y-119848609D02*
X136648495Y-119753371D01*
X136648495Y-119753371D02*
X136743733Y-119705752D01*
X136743733Y-119705752D02*
X136886590Y-119705752D01*
X136886590Y-119705752D02*
X136981828Y-119753371D01*
X136981828Y-119753371D02*
X137029447Y-119800990D01*
X136219923Y-120372419D02*
X135696114Y-119705752D01*
X136219923Y-119705752D02*
X135696114Y-120372419D01*
X135553257Y-120467657D02*
X134791352Y-120467657D01*
X134029447Y-119420038D02*
X134124685Y-119372419D01*
X134124685Y-119372419D02*
X134267542Y-119372419D01*
X134267542Y-119372419D02*
X134410399Y-119420038D01*
X134410399Y-119420038D02*
X134505637Y-119515276D01*
X134505637Y-119515276D02*
X134553256Y-119610514D01*
X134553256Y-119610514D02*
X134600875Y-119800990D01*
X134600875Y-119800990D02*
X134600875Y-119943847D01*
X134600875Y-119943847D02*
X134553256Y-120134323D01*
X134553256Y-120134323D02*
X134505637Y-120229561D01*
X134505637Y-120229561D02*
X134410399Y-120324800D01*
X134410399Y-120324800D02*
X134267542Y-120372419D01*
X134267542Y-120372419D02*
X134172304Y-120372419D01*
X134172304Y-120372419D02*
X134029447Y-120324800D01*
X134029447Y-120324800D02*
X133981828Y-120277180D01*
X133981828Y-120277180D02*
X133981828Y-119943847D01*
X133981828Y-119943847D02*
X134172304Y-119943847D01*
X146696115Y-118872419D02*
X146696115Y-117872419D01*
X146696115Y-117872419D02*
X146362782Y-118586704D01*
X146362782Y-118586704D02*
X146029449Y-117872419D01*
X146029449Y-117872419D02*
X146029449Y-118872419D01*
X144981830Y-118777180D02*
X145029449Y-118824800D01*
X145029449Y-118824800D02*
X145172306Y-118872419D01*
X145172306Y-118872419D02*
X145267544Y-118872419D01*
X145267544Y-118872419D02*
X145410401Y-118824800D01*
X145410401Y-118824800D02*
X145505639Y-118729561D01*
X145505639Y-118729561D02*
X145553258Y-118634323D01*
X145553258Y-118634323D02*
X145600877Y-118443847D01*
X145600877Y-118443847D02*
X145600877Y-118300990D01*
X145600877Y-118300990D02*
X145553258Y-118110514D01*
X145553258Y-118110514D02*
X145505639Y-118015276D01*
X145505639Y-118015276D02*
X145410401Y-117920038D01*
X145410401Y-117920038D02*
X145267544Y-117872419D01*
X145267544Y-117872419D02*
X145172306Y-117872419D01*
X145172306Y-117872419D02*
X145029449Y-117920038D01*
X145029449Y-117920038D02*
X144981830Y-117967657D01*
X144553258Y-117872419D02*
X144553258Y-118681942D01*
X144553258Y-118681942D02*
X144505639Y-118777180D01*
X144505639Y-118777180D02*
X144458020Y-118824800D01*
X144458020Y-118824800D02*
X144362782Y-118872419D01*
X144362782Y-118872419D02*
X144172306Y-118872419D01*
X144172306Y-118872419D02*
X144077068Y-118824800D01*
X144077068Y-118824800D02*
X144029449Y-118777180D01*
X144029449Y-118777180D02*
X143981830Y-118681942D01*
X143981830Y-118681942D02*
X143981830Y-117872419D01*
X142743734Y-118872419D02*
X142743734Y-117872419D01*
X142743734Y-117872419D02*
X142505639Y-117872419D01*
X142505639Y-117872419D02*
X142362782Y-117920038D01*
X142362782Y-117920038D02*
X142267544Y-118015276D01*
X142267544Y-118015276D02*
X142219925Y-118110514D01*
X142219925Y-118110514D02*
X142172306Y-118300990D01*
X142172306Y-118300990D02*
X142172306Y-118443847D01*
X142172306Y-118443847D02*
X142219925Y-118634323D01*
X142219925Y-118634323D02*
X142267544Y-118729561D01*
X142267544Y-118729561D02*
X142362782Y-118824800D01*
X142362782Y-118824800D02*
X142505639Y-118872419D01*
X142505639Y-118872419D02*
X142743734Y-118872419D01*
X141791353Y-118586704D02*
X141315163Y-118586704D01*
X141886591Y-118872419D02*
X141553258Y-117872419D01*
X141553258Y-117872419D02*
X141219925Y-118872419D01*
X141029448Y-117872419D02*
X140458020Y-117872419D01*
X140743734Y-118872419D02*
X140743734Y-117872419D01*
X140172305Y-118586704D02*
X139696115Y-118586704D01*
X140267543Y-118872419D02*
X139934210Y-117872419D01*
X139934210Y-117872419D02*
X139600877Y-118872419D01*
X138791353Y-118872419D02*
X139267543Y-118872419D01*
X139267543Y-118872419D02*
X139267543Y-117872419D01*
X138267543Y-117872419D02*
X138077067Y-117872419D01*
X138077067Y-117872419D02*
X137981829Y-117920038D01*
X137981829Y-117920038D02*
X137886591Y-118015276D01*
X137886591Y-118015276D02*
X137838972Y-118205752D01*
X137838972Y-118205752D02*
X137838972Y-118539085D01*
X137838972Y-118539085D02*
X137886591Y-118729561D01*
X137886591Y-118729561D02*
X137981829Y-118824800D01*
X137981829Y-118824800D02*
X138077067Y-118872419D01*
X138077067Y-118872419D02*
X138267543Y-118872419D01*
X138267543Y-118872419D02*
X138362781Y-118824800D01*
X138362781Y-118824800D02*
X138458019Y-118729561D01*
X138458019Y-118729561D02*
X138505638Y-118539085D01*
X138505638Y-118539085D02*
X138505638Y-118205752D01*
X138505638Y-118205752D02*
X138458019Y-118015276D01*
X138458019Y-118015276D02*
X138362781Y-117920038D01*
X138362781Y-117920038D02*
X138267543Y-117872419D01*
X136886591Y-117920038D02*
X136981829Y-117872419D01*
X136981829Y-117872419D02*
X137124686Y-117872419D01*
X137124686Y-117872419D02*
X137267543Y-117920038D01*
X137267543Y-117920038D02*
X137362781Y-118015276D01*
X137362781Y-118015276D02*
X137410400Y-118110514D01*
X137410400Y-118110514D02*
X137458019Y-118300990D01*
X137458019Y-118300990D02*
X137458019Y-118443847D01*
X137458019Y-118443847D02*
X137410400Y-118634323D01*
X137410400Y-118634323D02*
X137362781Y-118729561D01*
X137362781Y-118729561D02*
X137267543Y-118824800D01*
X137267543Y-118824800D02*
X137124686Y-118872419D01*
X137124686Y-118872419D02*
X137029448Y-118872419D01*
X137029448Y-118872419D02*
X136886591Y-118824800D01*
X136886591Y-118824800D02*
X136838972Y-118777180D01*
X136838972Y-118777180D02*
X136838972Y-118443847D01*
X136838972Y-118443847D02*
X137029448Y-118443847D01*
X135886591Y-117920038D02*
X135981829Y-117872419D01*
X135981829Y-117872419D02*
X136124686Y-117872419D01*
X136124686Y-117872419D02*
X136267543Y-117920038D01*
X136267543Y-117920038D02*
X136362781Y-118015276D01*
X136362781Y-118015276D02*
X136410400Y-118110514D01*
X136410400Y-118110514D02*
X136458019Y-118300990D01*
X136458019Y-118300990D02*
X136458019Y-118443847D01*
X136458019Y-118443847D02*
X136410400Y-118634323D01*
X136410400Y-118634323D02*
X136362781Y-118729561D01*
X136362781Y-118729561D02*
X136267543Y-118824800D01*
X136267543Y-118824800D02*
X136124686Y-118872419D01*
X136124686Y-118872419D02*
X136029448Y-118872419D01*
X136029448Y-118872419D02*
X135886591Y-118824800D01*
X135886591Y-118824800D02*
X135838972Y-118777180D01*
X135838972Y-118777180D02*
X135838972Y-118443847D01*
X135838972Y-118443847D02*
X136029448Y-118443847D01*
X135410400Y-118348609D02*
X135077067Y-118348609D01*
X134934210Y-118872419D02*
X135410400Y-118872419D01*
X135410400Y-118872419D02*
X135410400Y-117872419D01*
X135410400Y-117872419D02*
X134934210Y-117872419D01*
X133934210Y-118872419D02*
X134267543Y-118396228D01*
X134505638Y-118872419D02*
X134505638Y-117872419D01*
X134505638Y-117872419D02*
X134124686Y-117872419D01*
X134124686Y-117872419D02*
X134029448Y-117920038D01*
X134029448Y-117920038D02*
X133981829Y-117967657D01*
X133981829Y-117967657D02*
X133934210Y-118062895D01*
X133934210Y-118062895D02*
X133934210Y-118205752D01*
X133934210Y-118205752D02*
X133981829Y-118300990D01*
X133981829Y-118300990D02*
X134029448Y-118348609D01*
X134029448Y-118348609D02*
X134124686Y-118396228D01*
X134124686Y-118396228D02*
X134505638Y-118396228D01*
M02*
