%TF.GenerationSoftware,KiCad,Pcbnew,10.0.0*%
%TF.CreationDate,2026-03-29T09:26:31+05:30*%
%TF.ProjectId,MCU DATALOGGER,4d435520-4441-4544-914c-4f474745522e,1*%
%TF.SameCoordinates,Original*%
%TF.FileFunction,Legend,Top*%
%TF.FilePolarity,Positive*%
%FSLAX46Y46*%
G04 Gerber Fmt 4.6, Leading zero omitted, Abs format (unit mm)*
G04 Created by KiCad (PCBNEW 10.0.0) date 2026-03-29 09:26:31*
%MOMM*%
%LPD*%
G01*
G04 APERTURE LIST*
%ADD10C,0.100000*%
%ADD11C,0.150000*%
%ADD12C,0.120000*%
G04 APERTURE END LIST*
D10*
X182372419Y-105719925D02*
X182372419Y-106196115D01*
X182372419Y-106196115D02*
X182848609Y-106243734D01*
X182848609Y-106243734D02*
X182800990Y-106196115D01*
X182800990Y-106196115D02*
X182753371Y-106100877D01*
X182753371Y-106100877D02*
X182753371Y-105862782D01*
X182753371Y-105862782D02*
X182800990Y-105767544D01*
X182800990Y-105767544D02*
X182848609Y-105719925D01*
X182848609Y-105719925D02*
X182943847Y-105672306D01*
X182943847Y-105672306D02*
X183181942Y-105672306D01*
X183181942Y-105672306D02*
X183277180Y-105719925D01*
X183277180Y-105719925D02*
X183324800Y-105767544D01*
X183324800Y-105767544D02*
X183372419Y-105862782D01*
X183372419Y-105862782D02*
X183372419Y-106100877D01*
X183372419Y-106100877D02*
X183324800Y-106196115D01*
X183324800Y-106196115D02*
X183277180Y-106243734D01*
X183372419Y-104719925D02*
X183372419Y-105291353D01*
X183372419Y-105005639D02*
X182372419Y-105005639D01*
X182372419Y-105005639D02*
X182515276Y-105100877D01*
X182515276Y-105100877D02*
X182610514Y-105196115D01*
X182610514Y-105196115D02*
X182658133Y-105291353D01*
X182467657Y-104338972D02*
X182420038Y-104291353D01*
X182420038Y-104291353D02*
X182372419Y-104196115D01*
X182372419Y-104196115D02*
X182372419Y-103958020D01*
X182372419Y-103958020D02*
X182420038Y-103862782D01*
X182420038Y-103862782D02*
X182467657Y-103815163D01*
X182467657Y-103815163D02*
X182562895Y-103767544D01*
X182562895Y-103767544D02*
X182658133Y-103767544D01*
X182658133Y-103767544D02*
X182800990Y-103815163D01*
X182800990Y-103815163D02*
X183372419Y-104386591D01*
X183372419Y-104386591D02*
X183372419Y-103767544D01*
X183372419Y-103338972D02*
X182372419Y-103338972D01*
X183372419Y-102767544D02*
X182800990Y-103196115D01*
X182372419Y-102767544D02*
X182943847Y-103338972D01*
X182848609Y-101577067D02*
X182848609Y-101243734D01*
X183372419Y-101100877D02*
X183372419Y-101577067D01*
X183372419Y-101577067D02*
X182372419Y-101577067D01*
X182372419Y-101577067D02*
X182372419Y-101100877D01*
X182848609Y-100672305D02*
X182848609Y-100338972D01*
X183372419Y-100196115D02*
X183372419Y-100672305D01*
X183372419Y-100672305D02*
X182372419Y-100672305D01*
X182372419Y-100672305D02*
X182372419Y-100196115D01*
X183372419Y-99767543D02*
X182372419Y-99767543D01*
X182372419Y-99767543D02*
X182372419Y-99386591D01*
X182372419Y-99386591D02*
X182420038Y-99291353D01*
X182420038Y-99291353D02*
X182467657Y-99243734D01*
X182467657Y-99243734D02*
X182562895Y-99196115D01*
X182562895Y-99196115D02*
X182705752Y-99196115D01*
X182705752Y-99196115D02*
X182800990Y-99243734D01*
X182800990Y-99243734D02*
X182848609Y-99291353D01*
X182848609Y-99291353D02*
X182896228Y-99386591D01*
X182896228Y-99386591D02*
X182896228Y-99767543D01*
X183372419Y-98196115D02*
X182896228Y-98529448D01*
X183372419Y-98767543D02*
X182372419Y-98767543D01*
X182372419Y-98767543D02*
X182372419Y-98386591D01*
X182372419Y-98386591D02*
X182420038Y-98291353D01*
X182420038Y-98291353D02*
X182467657Y-98243734D01*
X182467657Y-98243734D02*
X182562895Y-98196115D01*
X182562895Y-98196115D02*
X182705752Y-98196115D01*
X182705752Y-98196115D02*
X182800990Y-98243734D01*
X182800990Y-98243734D02*
X182848609Y-98291353D01*
X182848609Y-98291353D02*
X182896228Y-98386591D01*
X182896228Y-98386591D02*
X182896228Y-98767543D01*
X182372419Y-97577067D02*
X182372419Y-97386591D01*
X182372419Y-97386591D02*
X182420038Y-97291353D01*
X182420038Y-97291353D02*
X182515276Y-97196115D01*
X182515276Y-97196115D02*
X182705752Y-97148496D01*
X182705752Y-97148496D02*
X183039085Y-97148496D01*
X183039085Y-97148496D02*
X183229561Y-97196115D01*
X183229561Y-97196115D02*
X183324800Y-97291353D01*
X183324800Y-97291353D02*
X183372419Y-97386591D01*
X183372419Y-97386591D02*
X183372419Y-97577067D01*
X183372419Y-97577067D02*
X183324800Y-97672305D01*
X183324800Y-97672305D02*
X183229561Y-97767543D01*
X183229561Y-97767543D02*
X183039085Y-97815162D01*
X183039085Y-97815162D02*
X182705752Y-97815162D01*
X182705752Y-97815162D02*
X182515276Y-97767543D01*
X182515276Y-97767543D02*
X182420038Y-97672305D01*
X182420038Y-97672305D02*
X182372419Y-97577067D01*
X183372419Y-96719924D02*
X182372419Y-96719924D01*
X182372419Y-96719924D02*
X183086704Y-96386591D01*
X183086704Y-96386591D02*
X182372419Y-96053258D01*
X182372419Y-96053258D02*
X183372419Y-96053258D01*
D11*
X118738095Y-137404819D02*
X118738095Y-136404819D01*
X118738095Y-136881009D02*
X119309523Y-136881009D01*
X119309523Y-137404819D02*
X119309523Y-136404819D01*
X119738095Y-136500057D02*
X119785714Y-136452438D01*
X119785714Y-136452438D02*
X119880952Y-136404819D01*
X119880952Y-136404819D02*
X120119047Y-136404819D01*
X120119047Y-136404819D02*
X120214285Y-136452438D01*
X120214285Y-136452438D02*
X120261904Y-136500057D01*
X120261904Y-136500057D02*
X120309523Y-136595295D01*
X120309523Y-136595295D02*
X120309523Y-136690533D01*
X120309523Y-136690533D02*
X120261904Y-136833390D01*
X120261904Y-136833390D02*
X119690476Y-137404819D01*
X119690476Y-137404819D02*
X120309523Y-137404819D01*
X180738095Y-87904819D02*
X180738095Y-86904819D01*
X180738095Y-87381009D02*
X181309523Y-87381009D01*
X181309523Y-87904819D02*
X181309523Y-86904819D01*
X181690476Y-86904819D02*
X182309523Y-86904819D01*
X182309523Y-86904819D02*
X181976190Y-87285771D01*
X181976190Y-87285771D02*
X182119047Y-87285771D01*
X182119047Y-87285771D02*
X182214285Y-87333390D01*
X182214285Y-87333390D02*
X182261904Y-87381009D01*
X182261904Y-87381009D02*
X182309523Y-87476247D01*
X182309523Y-87476247D02*
X182309523Y-87714342D01*
X182309523Y-87714342D02*
X182261904Y-87809580D01*
X182261904Y-87809580D02*
X182214285Y-87857200D01*
X182214285Y-87857200D02*
X182119047Y-87904819D01*
X182119047Y-87904819D02*
X181833333Y-87904819D01*
X181833333Y-87904819D02*
X181738095Y-87857200D01*
X181738095Y-87857200D02*
X181690476Y-87809580D01*
X153558333Y-90359580D02*
X153510714Y-90407200D01*
X153510714Y-90407200D02*
X153367857Y-90454819D01*
X153367857Y-90454819D02*
X153272619Y-90454819D01*
X153272619Y-90454819D02*
X153129762Y-90407200D01*
X153129762Y-90407200D02*
X153034524Y-90311961D01*
X153034524Y-90311961D02*
X152986905Y-90216723D01*
X152986905Y-90216723D02*
X152939286Y-90026247D01*
X152939286Y-90026247D02*
X152939286Y-89883390D01*
X152939286Y-89883390D02*
X152986905Y-89692914D01*
X152986905Y-89692914D02*
X153034524Y-89597676D01*
X153034524Y-89597676D02*
X153129762Y-89502438D01*
X153129762Y-89502438D02*
X153272619Y-89454819D01*
X153272619Y-89454819D02*
X153367857Y-89454819D01*
X153367857Y-89454819D02*
X153510714Y-89502438D01*
X153510714Y-89502438D02*
X153558333Y-89550057D01*
X153891667Y-89454819D02*
X154510714Y-89454819D01*
X154510714Y-89454819D02*
X154177381Y-89835771D01*
X154177381Y-89835771D02*
X154320238Y-89835771D01*
X154320238Y-89835771D02*
X154415476Y-89883390D01*
X154415476Y-89883390D02*
X154463095Y-89931009D01*
X154463095Y-89931009D02*
X154510714Y-90026247D01*
X154510714Y-90026247D02*
X154510714Y-90264342D01*
X154510714Y-90264342D02*
X154463095Y-90359580D01*
X154463095Y-90359580D02*
X154415476Y-90407200D01*
X154415476Y-90407200D02*
X154320238Y-90454819D01*
X154320238Y-90454819D02*
X154034524Y-90454819D01*
X154034524Y-90454819D02*
X153939286Y-90407200D01*
X153939286Y-90407200D02*
X153891667Y-90359580D01*
X118238095Y-87904819D02*
X118238095Y-86904819D01*
X118238095Y-87381009D02*
X118809523Y-87381009D01*
X118809523Y-87904819D02*
X118809523Y-86904819D01*
X119714285Y-87238152D02*
X119714285Y-87904819D01*
X119476190Y-86857200D02*
X119238095Y-87571485D01*
X119238095Y-87571485D02*
X119857142Y-87571485D01*
X154123809Y-112378628D02*
X154123809Y-112854819D01*
X153790476Y-111854819D02*
X154123809Y-112378628D01*
X154123809Y-112378628D02*
X154457142Y-111854819D01*
X154742857Y-111950057D02*
X154790476Y-111902438D01*
X154790476Y-111902438D02*
X154885714Y-111854819D01*
X154885714Y-111854819D02*
X155123809Y-111854819D01*
X155123809Y-111854819D02*
X155219047Y-111902438D01*
X155219047Y-111902438D02*
X155266666Y-111950057D01*
X155266666Y-111950057D02*
X155314285Y-112045295D01*
X155314285Y-112045295D02*
X155314285Y-112140533D01*
X155314285Y-112140533D02*
X155266666Y-112283390D01*
X155266666Y-112283390D02*
X154695238Y-112854819D01*
X154695238Y-112854819D02*
X155314285Y-112854819D01*
X156116666Y-138362319D02*
X156116666Y-139076604D01*
X156116666Y-139076604D02*
X156069047Y-139219461D01*
X156069047Y-139219461D02*
X155973809Y-139314700D01*
X155973809Y-139314700D02*
X155830952Y-139362319D01*
X155830952Y-139362319D02*
X155735714Y-139362319D01*
X157116666Y-139362319D02*
X156545238Y-139362319D01*
X156830952Y-139362319D02*
X156830952Y-138362319D01*
X156830952Y-138362319D02*
X156735714Y-138505176D01*
X156735714Y-138505176D02*
X156640476Y-138600414D01*
X156640476Y-138600414D02*
X156545238Y-138648033D01*
X134738095Y-88054819D02*
X134738095Y-88864342D01*
X134738095Y-88864342D02*
X134785714Y-88959580D01*
X134785714Y-88959580D02*
X134833333Y-89007200D01*
X134833333Y-89007200D02*
X134928571Y-89054819D01*
X134928571Y-89054819D02*
X135119047Y-89054819D01*
X135119047Y-89054819D02*
X135214285Y-89007200D01*
X135214285Y-89007200D02*
X135261904Y-88959580D01*
X135261904Y-88959580D02*
X135309523Y-88864342D01*
X135309523Y-88864342D02*
X135309523Y-88054819D01*
X136309523Y-89054819D02*
X135738095Y-89054819D01*
X136023809Y-89054819D02*
X136023809Y-88054819D01*
X136023809Y-88054819D02*
X135928571Y-88197676D01*
X135928571Y-88197676D02*
X135833333Y-88292914D01*
X135833333Y-88292914D02*
X135738095Y-88340533D01*
X166558333Y-103954819D02*
X166225000Y-103478628D01*
X165986905Y-103954819D02*
X165986905Y-102954819D01*
X165986905Y-102954819D02*
X166367857Y-102954819D01*
X166367857Y-102954819D02*
X166463095Y-103002438D01*
X166463095Y-103002438D02*
X166510714Y-103050057D01*
X166510714Y-103050057D02*
X166558333Y-103145295D01*
X166558333Y-103145295D02*
X166558333Y-103288152D01*
X166558333Y-103288152D02*
X166510714Y-103383390D01*
X166510714Y-103383390D02*
X166463095Y-103431009D01*
X166463095Y-103431009D02*
X166367857Y-103478628D01*
X166367857Y-103478628D02*
X165986905Y-103478628D01*
X167463095Y-102954819D02*
X166986905Y-102954819D01*
X166986905Y-102954819D02*
X166939286Y-103431009D01*
X166939286Y-103431009D02*
X166986905Y-103383390D01*
X166986905Y-103383390D02*
X167082143Y-103335771D01*
X167082143Y-103335771D02*
X167320238Y-103335771D01*
X167320238Y-103335771D02*
X167415476Y-103383390D01*
X167415476Y-103383390D02*
X167463095Y-103431009D01*
X167463095Y-103431009D02*
X167510714Y-103526247D01*
X167510714Y-103526247D02*
X167510714Y-103764342D01*
X167510714Y-103764342D02*
X167463095Y-103859580D01*
X167463095Y-103859580D02*
X167415476Y-103907200D01*
X167415476Y-103907200D02*
X167320238Y-103954819D01*
X167320238Y-103954819D02*
X167082143Y-103954819D01*
X167082143Y-103954819D02*
X166986905Y-103907200D01*
X166986905Y-103907200D02*
X166939286Y-103859580D01*
X153075595Y-97504819D02*
X153075595Y-98314342D01*
X153075595Y-98314342D02*
X153123214Y-98409580D01*
X153123214Y-98409580D02*
X153170833Y-98457200D01*
X153170833Y-98457200D02*
X153266071Y-98504819D01*
X153266071Y-98504819D02*
X153456547Y-98504819D01*
X153456547Y-98504819D02*
X153551785Y-98457200D01*
X153551785Y-98457200D02*
X153599404Y-98409580D01*
X153599404Y-98409580D02*
X153647023Y-98314342D01*
X153647023Y-98314342D02*
X153647023Y-97504819D01*
X154599404Y-97504819D02*
X154123214Y-97504819D01*
X154123214Y-97504819D02*
X154075595Y-97981009D01*
X154075595Y-97981009D02*
X154123214Y-97933390D01*
X154123214Y-97933390D02*
X154218452Y-97885771D01*
X154218452Y-97885771D02*
X154456547Y-97885771D01*
X154456547Y-97885771D02*
X154551785Y-97933390D01*
X154551785Y-97933390D02*
X154599404Y-97981009D01*
X154599404Y-97981009D02*
X154647023Y-98076247D01*
X154647023Y-98076247D02*
X154647023Y-98314342D01*
X154647023Y-98314342D02*
X154599404Y-98409580D01*
X154599404Y-98409580D02*
X154551785Y-98457200D01*
X154551785Y-98457200D02*
X154456547Y-98504819D01*
X154456547Y-98504819D02*
X154218452Y-98504819D01*
X154218452Y-98504819D02*
X154123214Y-98457200D01*
X154123214Y-98457200D02*
X154075595Y-98409580D01*
X172583333Y-99454819D02*
X172250000Y-98978628D01*
X172011905Y-99454819D02*
X172011905Y-98454819D01*
X172011905Y-98454819D02*
X172392857Y-98454819D01*
X172392857Y-98454819D02*
X172488095Y-98502438D01*
X172488095Y-98502438D02*
X172535714Y-98550057D01*
X172535714Y-98550057D02*
X172583333Y-98645295D01*
X172583333Y-98645295D02*
X172583333Y-98788152D01*
X172583333Y-98788152D02*
X172535714Y-98883390D01*
X172535714Y-98883390D02*
X172488095Y-98931009D01*
X172488095Y-98931009D02*
X172392857Y-98978628D01*
X172392857Y-98978628D02*
X172011905Y-98978628D01*
X172964286Y-98550057D02*
X173011905Y-98502438D01*
X173011905Y-98502438D02*
X173107143Y-98454819D01*
X173107143Y-98454819D02*
X173345238Y-98454819D01*
X173345238Y-98454819D02*
X173440476Y-98502438D01*
X173440476Y-98502438D02*
X173488095Y-98550057D01*
X173488095Y-98550057D02*
X173535714Y-98645295D01*
X173535714Y-98645295D02*
X173535714Y-98740533D01*
X173535714Y-98740533D02*
X173488095Y-98883390D01*
X173488095Y-98883390D02*
X172916667Y-99454819D01*
X172916667Y-99454819D02*
X173535714Y-99454819D01*
X147504819Y-136218333D02*
X148219104Y-136218333D01*
X148219104Y-136218333D02*
X148361961Y-136265952D01*
X148361961Y-136265952D02*
X148457200Y-136361190D01*
X148457200Y-136361190D02*
X148504819Y-136504047D01*
X148504819Y-136504047D02*
X148504819Y-136599285D01*
X147504819Y-135837380D02*
X147504819Y-135218333D01*
X147504819Y-135218333D02*
X147885771Y-135551666D01*
X147885771Y-135551666D02*
X147885771Y-135408809D01*
X147885771Y-135408809D02*
X147933390Y-135313571D01*
X147933390Y-135313571D02*
X147981009Y-135265952D01*
X147981009Y-135265952D02*
X148076247Y-135218333D01*
X148076247Y-135218333D02*
X148314342Y-135218333D01*
X148314342Y-135218333D02*
X148409580Y-135265952D01*
X148409580Y-135265952D02*
X148457200Y-135313571D01*
X148457200Y-135313571D02*
X148504819Y-135408809D01*
X148504819Y-135408809D02*
X148504819Y-135694523D01*
X148504819Y-135694523D02*
X148457200Y-135789761D01*
X148457200Y-135789761D02*
X148409580Y-135837380D01*
X184474819Y-125333333D02*
X185189104Y-125333333D01*
X185189104Y-125333333D02*
X185331961Y-125380952D01*
X185331961Y-125380952D02*
X185427200Y-125476190D01*
X185427200Y-125476190D02*
X185474819Y-125619047D01*
X185474819Y-125619047D02*
X185474819Y-125714285D01*
X184570057Y-124904761D02*
X184522438Y-124857142D01*
X184522438Y-124857142D02*
X184474819Y-124761904D01*
X184474819Y-124761904D02*
X184474819Y-124523809D01*
X184474819Y-124523809D02*
X184522438Y-124428571D01*
X184522438Y-124428571D02*
X184570057Y-124380952D01*
X184570057Y-124380952D02*
X184665295Y-124333333D01*
X184665295Y-124333333D02*
X184760533Y-124333333D01*
X184760533Y-124333333D02*
X184903390Y-124380952D01*
X184903390Y-124380952D02*
X185474819Y-124952380D01*
X185474819Y-124952380D02*
X185474819Y-124333333D01*
X166558333Y-107359580D02*
X166510714Y-107407200D01*
X166510714Y-107407200D02*
X166367857Y-107454819D01*
X166367857Y-107454819D02*
X166272619Y-107454819D01*
X166272619Y-107454819D02*
X166129762Y-107407200D01*
X166129762Y-107407200D02*
X166034524Y-107311961D01*
X166034524Y-107311961D02*
X165986905Y-107216723D01*
X165986905Y-107216723D02*
X165939286Y-107026247D01*
X165939286Y-107026247D02*
X165939286Y-106883390D01*
X165939286Y-106883390D02*
X165986905Y-106692914D01*
X165986905Y-106692914D02*
X166034524Y-106597676D01*
X166034524Y-106597676D02*
X166129762Y-106502438D01*
X166129762Y-106502438D02*
X166272619Y-106454819D01*
X166272619Y-106454819D02*
X166367857Y-106454819D01*
X166367857Y-106454819D02*
X166510714Y-106502438D01*
X166510714Y-106502438D02*
X166558333Y-106550057D01*
X166939286Y-106550057D02*
X166986905Y-106502438D01*
X166986905Y-106502438D02*
X167082143Y-106454819D01*
X167082143Y-106454819D02*
X167320238Y-106454819D01*
X167320238Y-106454819D02*
X167415476Y-106502438D01*
X167415476Y-106502438D02*
X167463095Y-106550057D01*
X167463095Y-106550057D02*
X167510714Y-106645295D01*
X167510714Y-106645295D02*
X167510714Y-106740533D01*
X167510714Y-106740533D02*
X167463095Y-106883390D01*
X167463095Y-106883390D02*
X166891667Y-107454819D01*
X166891667Y-107454819D02*
X167510714Y-107454819D01*
X171786905Y-91604819D02*
X171786905Y-90604819D01*
X171786905Y-90604819D02*
X172025000Y-90604819D01*
X172025000Y-90604819D02*
X172167857Y-90652438D01*
X172167857Y-90652438D02*
X172263095Y-90747676D01*
X172263095Y-90747676D02*
X172310714Y-90842914D01*
X172310714Y-90842914D02*
X172358333Y-91033390D01*
X172358333Y-91033390D02*
X172358333Y-91176247D01*
X172358333Y-91176247D02*
X172310714Y-91366723D01*
X172310714Y-91366723D02*
X172263095Y-91461961D01*
X172263095Y-91461961D02*
X172167857Y-91557200D01*
X172167857Y-91557200D02*
X172025000Y-91604819D01*
X172025000Y-91604819D02*
X171786905Y-91604819D01*
X172739286Y-90700057D02*
X172786905Y-90652438D01*
X172786905Y-90652438D02*
X172882143Y-90604819D01*
X172882143Y-90604819D02*
X173120238Y-90604819D01*
X173120238Y-90604819D02*
X173215476Y-90652438D01*
X173215476Y-90652438D02*
X173263095Y-90700057D01*
X173263095Y-90700057D02*
X173310714Y-90795295D01*
X173310714Y-90795295D02*
X173310714Y-90890533D01*
X173310714Y-90890533D02*
X173263095Y-91033390D01*
X173263095Y-91033390D02*
X172691667Y-91604819D01*
X172691667Y-91604819D02*
X173310714Y-91604819D01*
X166488333Y-95404819D02*
X166155000Y-94928628D01*
X165916905Y-95404819D02*
X165916905Y-94404819D01*
X165916905Y-94404819D02*
X166297857Y-94404819D01*
X166297857Y-94404819D02*
X166393095Y-94452438D01*
X166393095Y-94452438D02*
X166440714Y-94500057D01*
X166440714Y-94500057D02*
X166488333Y-94595295D01*
X166488333Y-94595295D02*
X166488333Y-94738152D01*
X166488333Y-94738152D02*
X166440714Y-94833390D01*
X166440714Y-94833390D02*
X166393095Y-94881009D01*
X166393095Y-94881009D02*
X166297857Y-94928628D01*
X166297857Y-94928628D02*
X165916905Y-94928628D01*
X166821667Y-94404819D02*
X167440714Y-94404819D01*
X167440714Y-94404819D02*
X167107381Y-94785771D01*
X167107381Y-94785771D02*
X167250238Y-94785771D01*
X167250238Y-94785771D02*
X167345476Y-94833390D01*
X167345476Y-94833390D02*
X167393095Y-94881009D01*
X167393095Y-94881009D02*
X167440714Y-94976247D01*
X167440714Y-94976247D02*
X167440714Y-95214342D01*
X167440714Y-95214342D02*
X167393095Y-95309580D01*
X167393095Y-95309580D02*
X167345476Y-95357200D01*
X167345476Y-95357200D02*
X167250238Y-95404819D01*
X167250238Y-95404819D02*
X166964524Y-95404819D01*
X166964524Y-95404819D02*
X166869286Y-95357200D01*
X166869286Y-95357200D02*
X166821667Y-95309580D01*
X180738095Y-137404819D02*
X180738095Y-136404819D01*
X180738095Y-136881009D02*
X181309523Y-136881009D01*
X181309523Y-137404819D02*
X181309523Y-136404819D01*
X182309523Y-137404819D02*
X181738095Y-137404819D01*
X182023809Y-137404819D02*
X182023809Y-136404819D01*
X182023809Y-136404819D02*
X181928571Y-136547676D01*
X181928571Y-136547676D02*
X181833333Y-136642914D01*
X181833333Y-136642914D02*
X181738095Y-136690533D01*
X159058333Y-90359580D02*
X159010714Y-90407200D01*
X159010714Y-90407200D02*
X158867857Y-90454819D01*
X158867857Y-90454819D02*
X158772619Y-90454819D01*
X158772619Y-90454819D02*
X158629762Y-90407200D01*
X158629762Y-90407200D02*
X158534524Y-90311961D01*
X158534524Y-90311961D02*
X158486905Y-90216723D01*
X158486905Y-90216723D02*
X158439286Y-90026247D01*
X158439286Y-90026247D02*
X158439286Y-89883390D01*
X158439286Y-89883390D02*
X158486905Y-89692914D01*
X158486905Y-89692914D02*
X158534524Y-89597676D01*
X158534524Y-89597676D02*
X158629762Y-89502438D01*
X158629762Y-89502438D02*
X158772619Y-89454819D01*
X158772619Y-89454819D02*
X158867857Y-89454819D01*
X158867857Y-89454819D02*
X159010714Y-89502438D01*
X159010714Y-89502438D02*
X159058333Y-89550057D01*
X159963095Y-89454819D02*
X159486905Y-89454819D01*
X159486905Y-89454819D02*
X159439286Y-89931009D01*
X159439286Y-89931009D02*
X159486905Y-89883390D01*
X159486905Y-89883390D02*
X159582143Y-89835771D01*
X159582143Y-89835771D02*
X159820238Y-89835771D01*
X159820238Y-89835771D02*
X159915476Y-89883390D01*
X159915476Y-89883390D02*
X159963095Y-89931009D01*
X159963095Y-89931009D02*
X160010714Y-90026247D01*
X160010714Y-90026247D02*
X160010714Y-90264342D01*
X160010714Y-90264342D02*
X159963095Y-90359580D01*
X159963095Y-90359580D02*
X159915476Y-90407200D01*
X159915476Y-90407200D02*
X159820238Y-90454819D01*
X159820238Y-90454819D02*
X159582143Y-90454819D01*
X159582143Y-90454819D02*
X159486905Y-90407200D01*
X159486905Y-90407200D02*
X159439286Y-90359580D01*
X180191666Y-113454819D02*
X180191666Y-114169104D01*
X180191666Y-114169104D02*
X180144047Y-114311961D01*
X180144047Y-114311961D02*
X180048809Y-114407200D01*
X180048809Y-114407200D02*
X179905952Y-114454819D01*
X179905952Y-114454819D02*
X179810714Y-114454819D01*
X181096428Y-113788152D02*
X181096428Y-114454819D01*
X180858333Y-113407200D02*
X180620238Y-114121485D01*
X180620238Y-114121485D02*
X181239285Y-114121485D01*
X134763095Y-105459819D02*
X134763095Y-106269342D01*
X134763095Y-106269342D02*
X134810714Y-106364580D01*
X134810714Y-106364580D02*
X134858333Y-106412200D01*
X134858333Y-106412200D02*
X134953571Y-106459819D01*
X134953571Y-106459819D02*
X135144047Y-106459819D01*
X135144047Y-106459819D02*
X135239285Y-106412200D01*
X135239285Y-106412200D02*
X135286904Y-106364580D01*
X135286904Y-106364580D02*
X135334523Y-106269342D01*
X135334523Y-106269342D02*
X135334523Y-105459819D01*
X135715476Y-105459819D02*
X136334523Y-105459819D01*
X136334523Y-105459819D02*
X136001190Y-105840771D01*
X136001190Y-105840771D02*
X136144047Y-105840771D01*
X136144047Y-105840771D02*
X136239285Y-105888390D01*
X136239285Y-105888390D02*
X136286904Y-105936009D01*
X136286904Y-105936009D02*
X136334523Y-106031247D01*
X136334523Y-106031247D02*
X136334523Y-106269342D01*
X136334523Y-106269342D02*
X136286904Y-106364580D01*
X136286904Y-106364580D02*
X136239285Y-106412200D01*
X136239285Y-106412200D02*
X136144047Y-106459819D01*
X136144047Y-106459819D02*
X135858333Y-106459819D01*
X135858333Y-106459819D02*
X135763095Y-106412200D01*
X135763095Y-106412200D02*
X135715476Y-106364580D01*
X173058333Y-104454819D02*
X172725000Y-103978628D01*
X172486905Y-104454819D02*
X172486905Y-103454819D01*
X172486905Y-103454819D02*
X172867857Y-103454819D01*
X172867857Y-103454819D02*
X172963095Y-103502438D01*
X172963095Y-103502438D02*
X173010714Y-103550057D01*
X173010714Y-103550057D02*
X173058333Y-103645295D01*
X173058333Y-103645295D02*
X173058333Y-103788152D01*
X173058333Y-103788152D02*
X173010714Y-103883390D01*
X173010714Y-103883390D02*
X172963095Y-103931009D01*
X172963095Y-103931009D02*
X172867857Y-103978628D01*
X172867857Y-103978628D02*
X172486905Y-103978628D01*
X174010714Y-104454819D02*
X173439286Y-104454819D01*
X173725000Y-104454819D02*
X173725000Y-103454819D01*
X173725000Y-103454819D02*
X173629762Y-103597676D01*
X173629762Y-103597676D02*
X173534524Y-103692914D01*
X173534524Y-103692914D02*
X173439286Y-103740533D01*
X122623809Y-113878628D02*
X122623809Y-114354819D01*
X122290476Y-113354819D02*
X122623809Y-113878628D01*
X122623809Y-113878628D02*
X122957142Y-113354819D01*
X123814285Y-114354819D02*
X123242857Y-114354819D01*
X123528571Y-114354819D02*
X123528571Y-113354819D01*
X123528571Y-113354819D02*
X123433333Y-113497676D01*
X123433333Y-113497676D02*
X123338095Y-113592914D01*
X123338095Y-113592914D02*
X123242857Y-113640533D01*
X147058333Y-90359580D02*
X147010714Y-90407200D01*
X147010714Y-90407200D02*
X146867857Y-90454819D01*
X146867857Y-90454819D02*
X146772619Y-90454819D01*
X146772619Y-90454819D02*
X146629762Y-90407200D01*
X146629762Y-90407200D02*
X146534524Y-90311961D01*
X146534524Y-90311961D02*
X146486905Y-90216723D01*
X146486905Y-90216723D02*
X146439286Y-90026247D01*
X146439286Y-90026247D02*
X146439286Y-89883390D01*
X146439286Y-89883390D02*
X146486905Y-89692914D01*
X146486905Y-89692914D02*
X146534524Y-89597676D01*
X146534524Y-89597676D02*
X146629762Y-89502438D01*
X146629762Y-89502438D02*
X146772619Y-89454819D01*
X146772619Y-89454819D02*
X146867857Y-89454819D01*
X146867857Y-89454819D02*
X147010714Y-89502438D01*
X147010714Y-89502438D02*
X147058333Y-89550057D01*
X148010714Y-90454819D02*
X147439286Y-90454819D01*
X147725000Y-90454819D02*
X147725000Y-89454819D01*
X147725000Y-89454819D02*
X147629762Y-89597676D01*
X147629762Y-89597676D02*
X147534524Y-89692914D01*
X147534524Y-89692914D02*
X147439286Y-89740533D01*
X172558333Y-95454819D02*
X172225000Y-94978628D01*
X171986905Y-95454819D02*
X171986905Y-94454819D01*
X171986905Y-94454819D02*
X172367857Y-94454819D01*
X172367857Y-94454819D02*
X172463095Y-94502438D01*
X172463095Y-94502438D02*
X172510714Y-94550057D01*
X172510714Y-94550057D02*
X172558333Y-94645295D01*
X172558333Y-94645295D02*
X172558333Y-94788152D01*
X172558333Y-94788152D02*
X172510714Y-94883390D01*
X172510714Y-94883390D02*
X172463095Y-94931009D01*
X172463095Y-94931009D02*
X172367857Y-94978628D01*
X172367857Y-94978628D02*
X171986905Y-94978628D01*
X172891667Y-94454819D02*
X173558333Y-94454819D01*
X173558333Y-94454819D02*
X173129762Y-95454819D01*
X166261905Y-89954819D02*
X166261905Y-88954819D01*
X166261905Y-88954819D02*
X166500000Y-88954819D01*
X166500000Y-88954819D02*
X166642857Y-89002438D01*
X166642857Y-89002438D02*
X166738095Y-89097676D01*
X166738095Y-89097676D02*
X166785714Y-89192914D01*
X166785714Y-89192914D02*
X166833333Y-89383390D01*
X166833333Y-89383390D02*
X166833333Y-89526247D01*
X166833333Y-89526247D02*
X166785714Y-89716723D01*
X166785714Y-89716723D02*
X166738095Y-89811961D01*
X166738095Y-89811961D02*
X166642857Y-89907200D01*
X166642857Y-89907200D02*
X166500000Y-89954819D01*
X166500000Y-89954819D02*
X166261905Y-89954819D01*
X167785714Y-89954819D02*
X167214286Y-89954819D01*
X167500000Y-89954819D02*
X167500000Y-88954819D01*
X167500000Y-88954819D02*
X167404762Y-89097676D01*
X167404762Y-89097676D02*
X167309524Y-89192914D01*
X167309524Y-89192914D02*
X167214286Y-89240533D01*
X119131009Y-104410714D02*
X119178628Y-104267857D01*
X119178628Y-104267857D02*
X119226247Y-104220238D01*
X119226247Y-104220238D02*
X119321485Y-104172619D01*
X119321485Y-104172619D02*
X119464342Y-104172619D01*
X119464342Y-104172619D02*
X119559580Y-104220238D01*
X119559580Y-104220238D02*
X119607200Y-104267857D01*
X119607200Y-104267857D02*
X119654819Y-104363095D01*
X119654819Y-104363095D02*
X119654819Y-104744047D01*
X119654819Y-104744047D02*
X118654819Y-104744047D01*
X118654819Y-104744047D02*
X118654819Y-104410714D01*
X118654819Y-104410714D02*
X118702438Y-104315476D01*
X118702438Y-104315476D02*
X118750057Y-104267857D01*
X118750057Y-104267857D02*
X118845295Y-104220238D01*
X118845295Y-104220238D02*
X118940533Y-104220238D01*
X118940533Y-104220238D02*
X119035771Y-104267857D01*
X119035771Y-104267857D02*
X119083390Y-104315476D01*
X119083390Y-104315476D02*
X119131009Y-104410714D01*
X119131009Y-104410714D02*
X119131009Y-104744047D01*
X118654819Y-103886904D02*
X118654819Y-103315476D01*
X119654819Y-103601190D02*
X118654819Y-103601190D01*
X119654819Y-102458333D02*
X119654819Y-103029761D01*
X119654819Y-102744047D02*
X118654819Y-102744047D01*
X118654819Y-102744047D02*
X118797676Y-102839285D01*
X118797676Y-102839285D02*
X118892914Y-102934523D01*
X118892914Y-102934523D02*
X118940533Y-103029761D01*
X123073866Y-107090951D02*
X123073866Y-106329047D01*
X123454819Y-106709999D02*
X122692914Y-106709999D01*
X134763095Y-96459819D02*
X134763095Y-97269342D01*
X134763095Y-97269342D02*
X134810714Y-97364580D01*
X134810714Y-97364580D02*
X134858333Y-97412200D01*
X134858333Y-97412200D02*
X134953571Y-97459819D01*
X134953571Y-97459819D02*
X135144047Y-97459819D01*
X135144047Y-97459819D02*
X135239285Y-97412200D01*
X135239285Y-97412200D02*
X135286904Y-97364580D01*
X135286904Y-97364580D02*
X135334523Y-97269342D01*
X135334523Y-97269342D02*
X135334523Y-96459819D01*
X135763095Y-96555057D02*
X135810714Y-96507438D01*
X135810714Y-96507438D02*
X135905952Y-96459819D01*
X135905952Y-96459819D02*
X136144047Y-96459819D01*
X136144047Y-96459819D02*
X136239285Y-96507438D01*
X136239285Y-96507438D02*
X136286904Y-96555057D01*
X136286904Y-96555057D02*
X136334523Y-96650295D01*
X136334523Y-96650295D02*
X136334523Y-96745533D01*
X136334523Y-96745533D02*
X136286904Y-96888390D01*
X136286904Y-96888390D02*
X135715476Y-97459819D01*
X135715476Y-97459819D02*
X136334523Y-97459819D01*
%TO.C,Y2*%
D12*
X150300000Y-114600000D02*
X151000000Y-114000000D01*
X150900000Y-115100000D02*
X150300000Y-114600000D01*
X151000000Y-114000000D02*
X151400000Y-114500000D01*
X159100000Y-118000000D02*
G75*
G02*
X149900000Y-118000000I-4600000J0D01*
G01*
X149900000Y-118000000D02*
G75*
G02*
X159100000Y-118000000I4600000J0D01*
G01*
%TO.C,J1*%
X153090000Y-137672500D02*
X153090000Y-134160000D01*
X154090000Y-137672500D02*
X153090000Y-137672500D01*
X154110000Y-133102500D02*
X158790000Y-133102500D01*
X155290000Y-137672500D02*
X155210000Y-137672500D01*
X156490000Y-137672500D02*
X156410000Y-137672500D01*
X157690000Y-137672500D02*
X157610000Y-137672500D01*
X158033494Y-138387500D02*
X158466506Y-138387500D01*
X158250000Y-138012500D02*
X158033494Y-138387500D01*
X158466506Y-138387500D02*
X158250000Y-138012500D01*
X159810000Y-134160000D02*
X159810000Y-137672500D01*
X159810000Y-137672500D02*
X158810000Y-137672500D01*
%TO.C,U1*%
X133440000Y-89440000D02*
X137560000Y-89440000D01*
X133440000Y-89535000D02*
X133440000Y-89440000D01*
X133440000Y-94560000D02*
X133440000Y-94465000D01*
X137560000Y-89440000D02*
X137560000Y-89535000D01*
X137560000Y-94465000D02*
X137560000Y-94560000D01*
X137560000Y-94560000D02*
X133440000Y-94560000D01*
X132900000Y-89530000D02*
X132660000Y-89200000D01*
X133140000Y-89200000D01*
X132900000Y-89530000D01*
G36*
X132900000Y-89530000D02*
G01*
X132660000Y-89200000D01*
X133140000Y-89200000D01*
X132900000Y-89530000D01*
G37*
%TO.C,U5*%
X150227500Y-100290000D02*
X150502500Y-100290000D01*
X150227500Y-100565000D02*
X150227500Y-100290000D01*
X150227500Y-107510000D02*
X150227500Y-107235000D01*
X150502500Y-107510000D02*
X150227500Y-107510000D01*
X157172500Y-100290000D02*
X157447500Y-100290000D01*
X157447500Y-100290000D02*
X157447500Y-100565000D01*
X157447500Y-107235000D02*
X157447500Y-107510000D01*
X157447500Y-107510000D02*
X157172500Y-107510000D01*
X149587500Y-100560000D02*
X149247500Y-100090000D01*
X149927500Y-100090000D01*
X149587500Y-100560000D01*
G36*
X149587500Y-100560000D02*
G01*
X149247500Y-100090000D01*
X149927500Y-100090000D01*
X149587500Y-100560000D01*
G37*
%TO.C,J3*%
X125030000Y-132577358D02*
X125030000Y-132890000D01*
X125030000Y-141650000D02*
X125030000Y-135650000D01*
X125890000Y-132577358D02*
X125890000Y-132890000D01*
X125890000Y-135650000D02*
X125890000Y-141650000D01*
X125890000Y-141650000D02*
X125030000Y-141650000D01*
X126730000Y-132890000D02*
X126730000Y-135650000D01*
X127570000Y-132577358D02*
X127570000Y-132890000D01*
X127570000Y-141650000D02*
X127570000Y-135650000D01*
X128430000Y-132577358D02*
X128430000Y-132890000D01*
X128430000Y-135650000D02*
X128430000Y-141650000D01*
X128430000Y-141650000D02*
X127570000Y-141650000D01*
X129270000Y-132890000D02*
X129270000Y-135650000D01*
X130110000Y-132577358D02*
X130110000Y-132890000D01*
X130110000Y-141650000D02*
X130110000Y-135650000D01*
X130970000Y-132577358D02*
X130970000Y-132890000D01*
X130970000Y-135650000D02*
X130970000Y-141650000D01*
X130970000Y-141650000D02*
X130110000Y-141650000D01*
X131810000Y-132890000D02*
X131810000Y-135650000D01*
X132650000Y-132577358D02*
X132650000Y-132890000D01*
X132650000Y-141650000D02*
X132650000Y-135650000D01*
X133510000Y-132577358D02*
X133510000Y-132890000D01*
X133510000Y-135650000D02*
X133510000Y-141650000D01*
X133510000Y-141650000D02*
X132650000Y-141650000D01*
X134350000Y-132890000D02*
X134350000Y-135650000D01*
X135190000Y-132577358D02*
X135190000Y-132890000D01*
X135190000Y-141650000D02*
X135190000Y-135650000D01*
X136050000Y-132577358D02*
X136050000Y-132890000D01*
X136050000Y-135650000D02*
X136050000Y-141650000D01*
X136050000Y-141650000D02*
X135190000Y-141650000D01*
X136890000Y-132890000D02*
X136890000Y-135650000D01*
X137730000Y-132577358D02*
X137730000Y-132890000D01*
X137730000Y-141650000D02*
X137730000Y-135650000D01*
X138590000Y-132577358D02*
X138590000Y-132890000D01*
X138590000Y-135650000D02*
X138590000Y-141650000D01*
X138590000Y-141650000D02*
X137730000Y-141650000D01*
X139430000Y-132890000D02*
X139430000Y-135650000D01*
X140270000Y-132577358D02*
X140270000Y-132890000D01*
X140270000Y-141650000D02*
X140270000Y-135650000D01*
X141130000Y-132577358D02*
X141130000Y-132890000D01*
X141130000Y-135650000D02*
X141130000Y-141650000D01*
X141130000Y-141650000D02*
X140270000Y-141650000D01*
X141970000Y-132890000D02*
X141970000Y-135650000D01*
X142810000Y-132577358D02*
X142810000Y-132890000D01*
X142810000Y-141650000D02*
X142810000Y-135650000D01*
X143670000Y-132577358D02*
X143670000Y-132890000D01*
X143670000Y-135650000D02*
X143670000Y-141650000D01*
X143670000Y-141650000D02*
X142810000Y-141650000D01*
X144510000Y-132890000D02*
X144510000Y-135650000D01*
X145350000Y-132660000D02*
X145350000Y-132890000D01*
X145780000Y-130230000D02*
X147050000Y-130230000D01*
X146210000Y-132660000D02*
X146210000Y-132890000D01*
X147050000Y-130230000D02*
X147050000Y-131500000D01*
X145350000Y-135650000D02*
X146210000Y-135650000D01*
X146210000Y-141650000D01*
X145350000Y-141650000D01*
X145350000Y-135650000D01*
G36*
X145350000Y-135650000D02*
G01*
X146210000Y-135650000D01*
X146210000Y-141650000D01*
X145350000Y-141650000D01*
X145350000Y-135650000D01*
G37*
X124080000Y-132890000D02*
X147160000Y-132890000D01*
X147160000Y-135650000D01*
X124080000Y-135650000D01*
X124080000Y-132890000D01*
%TO.C,J2*%
X179215000Y-127340000D02*
X179215000Y-122660000D01*
X180272500Y-121640000D02*
X183785000Y-121640000D01*
X183785000Y-121640000D02*
X183785000Y-122640000D01*
X183785000Y-123760000D02*
X183785000Y-123840000D01*
X183785000Y-124960000D02*
X183785000Y-125040000D01*
X183785000Y-126160000D02*
X183785000Y-126240000D01*
X183785000Y-127360000D02*
X183785000Y-128360000D01*
X183785000Y-128360000D02*
X180272500Y-128360000D01*
X184125000Y-123200000D02*
X184500000Y-123416506D01*
X184500000Y-122983494D02*
X184125000Y-123200000D01*
X184500000Y-123416506D02*
X184500000Y-122983494D01*
%TO.C,D2*%
D10*
X166040000Y-90500000D02*
G75*
G02*
X165940000Y-90500000I-50000J0D01*
G01*
X165940000Y-90500000D02*
G75*
G02*
X166040000Y-90500000I50000J0D01*
G01*
%TO.C,J4*%
D12*
X177965000Y-114265000D02*
X178700000Y-114265000D01*
X177965000Y-115000000D02*
X177965000Y-114265000D01*
X180387477Y-114740000D02*
X180490000Y-114740000D01*
X180387477Y-115260000D02*
X180490000Y-115260000D01*
X180387477Y-115740000D02*
X180490000Y-115740000D01*
X180387477Y-116260000D02*
X180490000Y-116260000D01*
X180387477Y-116740000D02*
X180490000Y-116740000D01*
X180387477Y-117260000D02*
X180490000Y-117260000D01*
X180490000Y-115500000D02*
X181910000Y-115500000D01*
X180490000Y-116500000D02*
X181910000Y-116500000D01*
X181910000Y-115740000D02*
X183910000Y-115740000D01*
X181910000Y-116740000D02*
X183910000Y-116740000D01*
X183910000Y-115740000D02*
X183910000Y-116260000D01*
X183910000Y-116260000D02*
X181910000Y-116260000D01*
X183910000Y-116740000D02*
X183910000Y-117260000D01*
X183910000Y-117260000D02*
X181910000Y-117260000D01*
X180490000Y-114390000D02*
X181910000Y-114390000D01*
X181910000Y-117610000D01*
X180490000Y-117610000D01*
X180490000Y-114390000D01*
X181910000Y-114740000D02*
X183910000Y-114740000D01*
X183910000Y-115260000D01*
X181910000Y-115260000D01*
X181910000Y-114740000D01*
G36*
X181910000Y-114740000D02*
G01*
X183910000Y-114740000D01*
X183910000Y-115260000D01*
X181910000Y-115260000D01*
X181910000Y-114740000D01*
G37*
%TO.C,U3*%
X133465000Y-106845000D02*
X137585000Y-106845000D01*
X133465000Y-106940000D02*
X133465000Y-106845000D01*
X133465000Y-111965000D02*
X133465000Y-111870000D01*
X137585000Y-106845000D02*
X137585000Y-106940000D01*
X137585000Y-111870000D02*
X137585000Y-111965000D01*
X137585000Y-111965000D02*
X133465000Y-111965000D01*
X132925000Y-106935000D02*
X132685000Y-106605000D01*
X133165000Y-106605000D01*
X132925000Y-106935000D01*
G36*
X132925000Y-106935000D02*
G01*
X132685000Y-106605000D01*
X133165000Y-106605000D01*
X132925000Y-106935000D01*
G37*
%TO.C,Y1*%
X118800000Y-116100000D02*
X119500000Y-115500000D01*
X119400000Y-116600000D02*
X118800000Y-116100000D01*
X119500000Y-115500000D02*
X119900000Y-116000000D01*
X127600000Y-119500000D02*
G75*
G02*
X118400000Y-119500000I-4600000J0D01*
G01*
X118400000Y-119500000D02*
G75*
G02*
X127600000Y-119500000I4600000J0D01*
G01*
%TO.C,D1*%
D10*
X171790000Y-91000000D02*
G75*
G02*
X171690000Y-91000000I-50000J0D01*
G01*
X171690000Y-91000000D02*
G75*
G02*
X171790000Y-91000000I50000J0D01*
G01*
%TO.C,BT1*%
D12*
X120640000Y-100940000D02*
X120640000Y-98515000D01*
X120640000Y-108735000D02*
X120640000Y-103060000D01*
X123710000Y-98515000D02*
X120640000Y-98515000D01*
X123710000Y-104190000D02*
X123710000Y-98515000D01*
X123710000Y-108735000D02*
X120640000Y-108735000D01*
X123710000Y-108735000D02*
X123710000Y-106310000D01*
%TO.C,U2*%
X133465000Y-97845000D02*
X137585000Y-97845000D01*
X133465000Y-97940000D02*
X133465000Y-97845000D01*
X133465000Y-102965000D02*
X133465000Y-102870000D01*
X137585000Y-97845000D02*
X137585000Y-97940000D01*
X137585000Y-102870000D02*
X137585000Y-102965000D01*
X137585000Y-102965000D02*
X133465000Y-102965000D01*
X132925000Y-97935000D02*
X132685000Y-97605000D01*
X133165000Y-97605000D01*
X132925000Y-97935000D01*
G36*
X132925000Y-97935000D02*
G01*
X132685000Y-97605000D01*
X133165000Y-97605000D01*
X132925000Y-97935000D01*
G37*
%TD*%
M02*
